# xmcd CD database file
#
# Track frame offsets:
#	182
#	17350
#	49395
#	70142
#	100687
#	129837
#	152957
#	181000
#	202225
#	226675
#
# Disc length: 3313 seconds
#
# Revision: 0
# Processed by: cddbd v1.5.1PL2 Copyright (c) Steve Scherf et al.
# Submitted via: CDex 1.51
#
DISCID=780cef0a
DTITLE=Orquesta Original de Manzanillo - ¡Vía libre que viene...!
DYEAR=1900
DGENRE=Salsa
TTITLE0=De Manzanillo te traigo un son (D. R.)
TTITLE1=Coge el camarón (Cándido Fabré)
TTITLE2=El diapasón (Alina Torres)
TTITLE3=Traigo la última (Cándido Fabré)
TTITLE4=Vía libre que viene la Original (Cándido Fabré)
TTITLE5=Qué le pasa a Chacumbele (Cándido Fabré)
TTITLE6=El barrendero (Cándido Fabré)
TTITLE7=El camaronero (D. R.)
TTITLE8=Acabo de llegar (Cándido Fabré)
TTITLE9=El cinturón del taxi (Cándido Fabré)
EXTD=
EXTT0=
EXTT1=
EXTT2=
EXTT3=
EXTT4=
EXTT5=
EXTT6=
EXTT7=
EXTT8=
EXTT9=
PLAYORDER=
